<svg viewBox="0 0 256 326" fill="none" xmlns="http://www.w3.org/2000/svg"><path fill-rule="evenodd" clip-rule="evenodd" d="M216 137.8c11.9-.9 23.4-4.7 33.5-2.3-9.5-5.6-22.7-5.1-32.8-7.5-6.3-1.3-13.3-6.7-22.3-10l.5-.7 54.4-16.9-56.7 1c-.3-1.8-.6-3.5-1.5-5.2 5.5-3.4 13.4-6 21.6-11.1 9.5-7.7 16.2-18 25.8-21.5-10.8.7-21.3 9.2-30.9 13.3-5.7 2.2-14.8 2-23.4 4.7-.6.1-.7-.5-.8-1.1l34.2-45.9-44.7 34.5c-1.4-1-3.4-2.4-4.8-3.4 2.6-5.9 7.5-12.2 10.8-21.2 3.3-12.1 3-24.1 8.7-33-8.4 6.9-11.5 20.2-17.2 29-3.3 5.4-10.9 10.4-16.2 18-.6.1-.7-.5-1.3-.4l.7-57.6-15.8 54.2c-1.9-.3-4.2.1-6.1-.1-1-5.9-1.3-14.3-3.6-23.6-4.4-11.3-12.2-20.8-12.7-31-2.4 10.1 2.8 22.5 3.5 33.2.4 6-2.9 14.4-2.4 24l-1.2.2-33.1-46.7 18.6 53.5c-1.6.9-3.3 1.8-5 2.7-4.3-4.1-9.1-10.5-16.9-17-10.1-6.1-21.6-9.5-27.9-17.4 3.5 9.7 15 16.7 22 25.1 3.9 4.8 5.9 12.9 11.6 20.9l-.5.7-54-18 46.1 31.7c-.9 2-1.1 3.8-1.4 5.7C68 98 60.4 95.7 50.6 95c-12 .3-23.3 4.7-33.6 1.7 9 6.3 22.7 5.1 32.8 7.5 6.4 1.9 12.7 6.8 22.3 10-.5.7-.5.7-.4 1.3l-54.5 16.9 56.6-1.6c.3 1.8.6 3.5 1.6 5.8-5.6 2.8-13.6 5.4-21.6 11.1-9.6 7.1-16.3 17.4-25.9 20.9 10.9-.1 21.3-9.2 30.9-13.3 5.7-2.2 14.8-2 23.3-4.7.7.5.7.5.8 1.1l-34.2 46 44.7-34.5c1.5 1.6 2.9 2.5 4.8 3.4-2.6 5.9-7.4 12.8-10.6 21.8-3.4 11.5-3.1 23.5-8.8 32.4 8.4-6.9 11.6-20.2 17.2-29 3.4-4.8 11-9.8 16.3-17.4.6-.1.6-.1 1.3.4l9.3 67.4 15.3-64.7c1.9.3-5.9.6-4.1.3 1.7 6.3 1.9 14.2 4.3 24 4.3 10.7 9.2 32.1 9.3 43 2.9-10.8.5-35-.2-45.8-.4-6 2.9-14.4 2.5-23.4.6-.1 1.2-.2 1.1-.8l33.2 47.3-18.6-53.5c1.7-.9 3.2-2.4 4.3-3.2 4.9 4 9.7 10.4 17.5 16.9 10.2 6.6 21.7 10.1 28 18-3.6-10.2-15.2-17.3-22-25.1-4-5.3-6-13.4-11.6-20.9-.1-.6-.1-.6.4-1.3l54.1 18.8-46.1-32.5c.3-1.9 1.2-3.2 1.5-5.1 6.6 0 14.4 2.9 24.2 3.6z" fill="#FFDC33"/><path d="M4.9 289.4v1.3c0 1.8 0 3.3.1 4.7 0 1.4.1 2.7.2 4-.4 0-.8-.1-1.2-.1H1.2c-.4 0-.8 0-1.2.1.1-1.3.1-2.7.2-4 0-1.4.1-2.9.1-4.7v-4.3c0-1.8 0-3.3-.1-4.7 0-1.4-.1-2.7-.2-4.1.4 0 .8.1 1.2.1h1.4c.6 0 1.2 0 2-.1.7-.1 1.6-.1 2.7-.1.8 0 1.5 0 2.1.1.6 0 1.1.1 1.5.2.4.1.8.2 1.1.3.3.1.6.3.9.5.6.5 1.1 1 1.5 1.7.4.7.6 1.5.6 2.5 0 1.5-.4 2.8-1.3 3.8-.8 1-2.1 1.7-3.7 2.1 1 1.8 2.1 3.6 3.3 5.4 1.2 1.8 2.3 3.6 3.5 5.3-.5 0-1-.1-1.4-.1h-2.8c-.5 0-1 0-1.4.1l-5.7-10h-.6zm4.8-8c-.2-.6-.5-1-.9-1.3-.4-.3-.9-.5-1.5-.6-.6-.1-1.4-.1-2.2-.1-.1 2.9-.1 5.8-.1 8.7h.7c1.4 0 2.5-.4 3.2-1.1.7-.8 1.1-1.9 1.1-3.4 0-1-.1-1.7-.3-2.2zm27.9 18.1c-.5 0-1-.1-1.4-.1h-2.8c-.5 0-.9 0-1.4.1-.3-1-.7-2.1-1-3.2-.4-1.1-.7-2.2-1.1-3.2h-7.4c-.4 1.1-.8 2.2-1.2 3.2-.4 1.1-.7 2.1-1 3.2-.3 0-.5-.1-.7-.1h-1.5c-.3 0-.5 0-.8.1.3-.6.6-1.3 1-2.3.4-1 .9-2.1 1.4-3.3.5-1.2 1.1-2.5 1.6-4 .6-1.4 1.2-2.8 1.7-4.3.6-1.4 1.2-2.9 1.7-4.3.6-1.4 1.1-2.7 1.5-3.9.2 0 .4.1.6.1H28c.2 0 .4-.1.6-.1.7 1.8 1.4 3.7 2.2 5.8.8 2.1 1.6 4.1 2.3 6.1.8 2 1.5 3.9 2.3 5.6.9 1.8 1.6 3.3 2.2 4.6zm-11.3-15.9c-.6 1.3-1.1 2.5-1.6 3.8-.5 1.2-1 2.5-1.4 3.8h5.8c-.5-1.3-.9-2.6-1.4-3.8-.4-1.3-.8-2.5-1.4-3.8zm23.6-1.9c-.1-1.3-.1-2.7-.2-4.1 1 0 1.9.1 2.8.1h5.7c1 0 2-.1 3.2-.1-.1.3-.1.6-.1 1 0 .3 0 .6.1 1-.6-.1-1.3-.1-2.1-.2s-1.6-.1-2.5-.1c-.8 0-1.6-.1-2.4-.1h-1.9v8.2c1.4 0 2.8 0 4.2-.1 1.4 0 2.7-.1 4.1-.3-.1.3-.1.6-.1 1 0 .3 0 .6.1 1-.5-.1-1.1-.1-1.8-.1s-1.4-.1-2.1-.1h-4.3v2.7c0 1.4 0 2.8.1 4.1.1 1.4.1 2.7.2 4-.5 0-1-.1-1.6-.1-.6 0-1.1 0-1.6.1.1-1.3.1-2.7.2-4 .1-1.4.1-2.7.1-4.1V286c0-1.6 0-2.9-.1-4.3zm15.1 2.1c.6-1.4 1.4-2.6 2.4-3.6s2.3-1.7 3.8-2.2c1.5-.5 3.1-.8 4.8-.8 1.8 0 3.4.3 4.8.8 1.5.5 2.7 1.3 3.8 2.2 1 1 1.9 2.2 2.4 3.6.6 1.4.9 3 .9 4.8 0 1.8-.3 3.4-.9 4.8-.6 1.4-1.4 2.6-2.4 3.6s-2.3 1.7-3.8 2.2c-1.5.5-3.1.7-4.8.7-1.7 0-3.3-.2-4.8-.7-1.5-.5-2.7-1.2-3.8-2.2-1-1-1.9-2.2-2.4-3.6-.6-1.4-.9-3-.9-4.8 0-1.8.3-3.4.9-4.8zm19.2.2c-.4-1.3-1.1-2.3-1.9-3.2-.8-.8-1.7-1.5-2.8-1.9-1.1-.4-2.2-.6-3.5-.6-1.2 0-2.4.2-3.5.6-1.1.4-2 1-2.8 1.9-.8.8-1.4 1.9-1.9 3.2-.4 1.3-.7 2.8-.7 4.6 0 1.8.2 3.3.7 4.6.5 1.3 1.1 2.3 1.9 3.2.8.8 1.7 1.5 2.8 1.9 1.1.4 2.2.6 3.5.6 1.3 0 2.4-.2 3.5-.6 1.1-.4 2-1 2.8-1.9.8-.8 1.4-1.9 1.9-3.2.4-1.3.7-2.8.7-4.6-.1-1.8-.3-3.3-.7-4.6zm24.8-3c0-1.6-.1-2.8-.2-3.4.2 0 .5.1.7.1h.6c.3 0 .6-.1 1-.2-.1.7-.1 1.6-.2 2.7-.1 1-.1 2.1-.2 3.3 0 1.2-.1 2.4-.1 3.6 0 1.2-.1 2.4-.1 3.6 0 1.4-.2 2.7-.7 3.8-.4 1.1-1 2.1-1.8 2.9-.8.8-1.7 1.4-2.8 1.8-1.1.4-2.4.6-3.8.6-3.2 0-5.5-.7-6.9-2.2-1.4-1.4-2.2-3.7-2.2-6.8 0-1 0-1.9.1-2.7.1-.8.1-1.6.1-2.4 0-1.8 0-3.4-.1-4.7 0-1.4-.1-2.5-.1-3.5.3 0 .5.1.8.1h1.5c.2 0 .5-.1.7-.1 0 .5-.1 1.1-.1 1.8 0 .8-.1 1.6-.1 2.6s-.1 2-.1 3.1v5.6c0 .8.1 1.5.2 2.3.1.7.3 1.4.6 2.1.3.7.7 1.3 1.2 1.8s1.2.9 2 1.2c.8.3 1.8.4 3 .4s2.1-.2 2.9-.5c.8-.3 1.4-.8 2-1.3.5-.6.9-1.2 1.2-1.9.3-.7.5-1.5.6-2.3.1-.8.2-1.6.2-2.4v-2.2c.1-2.9.1-5.2.1-6.8zm18.3 10.2c-2.8-3-5.5-5.9-8.3-8.8 0 .6 0 1.4-.1 2.4v10.1c0 .7 0 1.4.1 2.1 0 .6 0 1.2.1 1.7 0 .5 0 .8.1 1-.3 0-.7-.1-1.1-.1-.4 0-.8 0-1.2.1 0-.2.1-.6.1-1.2.1-.6.1-1.3.1-2.1s.1-1.7.1-2.6c.1-.9.1-1.9.1-2.8 0-.9.1-1.8.1-2.7v-7.6c0-1.5 0-2.6-.1-3.3h.5c1.3 1.4 2.7 2.9 4.2 4.5s2.9 3.2 4.4 4.7c1.5 1.6 2.8 3 4.1 4.4 1.3 1.4 2.4 2.6 3.4 3.5v-10.8c0-2.1-.1-4.1-.2-6 .4.1.8.2 1.1.2.3 0 .6-.1 1-.2 0 .5-.1 1.2-.1 2.1-.1.9-.1 1.9-.2 3s-.1 2.1-.1 3.1-.1 1.8-.1 2.4v11.6h-.2c-2.5-2.9-5.1-5.7-7.8-8.7zm14.5-9.5c-.1-1.3-.1-2.7-.2-4.1.8 0 1.6.1 2.4.1h2.4c.8 0 1.6 0 2.4-.1.8-.1 1.6-.1 2.4-.1 1.9 0 3.5.2 4.8.7 1.3.5 2.4 1.2 3.3 2.1.8.9 1.5 2 1.9 3.3.4 1.3.6 2.8.6 4.4 0 2.1-.4 3.9-1.1 5.4-.7 1.5-1.7 2.6-2.8 3.5-1.1.9-2.4 1.5-3.8 1.9-1.4.4-2.7.6-3.9.6h-6.3c-.7 0-1.4 0-2.1.1.1-1.3.1-2.7.2-4 .1-1.4.1-2.7.1-4.1v-5.5c-.2-1.5-.2-2.8-.3-4.2zm2.9 16.4c.4.1 1 .2 1.8.2.8.1 1.5.1 2.4.1 1.2 0 2.3-.1 3.5-.4 1.2-.3 2.2-.8 3.1-1.6.9-.8 1.7-1.8 2.3-3.1.6-1.3.9-3 .9-5.1 0-1.8-.2-3.4-.7-4.5-.5-1.2-1.1-2.1-1.9-2.8-.8-.7-1.7-1.2-2.8-1.4-1.1-.3-2.3-.4-3.6-.4-1 0-1.8 0-2.7.1-.8.1-1.6.1-2.2.2-.1 1-.1 2.1-.1 3.2v8.9c-.2 2.1-.1 4.3 0 6.6zm37.8 1.4c-.3 0-.6-.1-.8-.1h-1.6c-.3 0-.5 0-.8.1-.1-.5-.4-1.1-.6-1.8-.3-.7-.5-1.4-.8-2.2-.3-.8-.6-1.5-.9-2.3-.3-.8-.6-1.5-.9-2.2h-8c-.7 1.7-1.3 3.2-1.8 4.7-.6 1.5-1 2.7-1.2 3.7-.4 0-.8-.1-1.2-.1-.4 0-.8 0-1.2.1 1.7-3.7 3.4-7.4 5-11.1 1.6-3.7 3.3-7.4 4.9-11.2h.6c.5 1.2 1.1 2.6 1.7 4 .6 1.4 1.2 2.9 1.8 4.3.6 1.5 1.2 2.9 1.8 4.4.6 1.4 1.2 2.8 1.7 4 .5 1.2 1 2.3 1.5 3.3.1 1.1.5 1.8.8 2.4zm-14.1-9.9h7l-3.5-8.1-3.5 8.1zm19.7-10.3h-1.7c-.6 0-1.2 0-1.8.1-.6 0-1.2.1-1.8.1-.6 0-1.1.1-1.5.2.1-.4.2-.7.2-1 0-.2-.1-.6-.2-1 1.4 0 2.8.1 4.1.1h8.2c1.3 0 2.7-.1 4.1-.1-.1.4-.2.8-.2 1 0 .3.1.6.2 1-.4-.1-.9-.1-1.5-.2-.6 0-1.1-.1-1.8-.1-.6 0-1.2-.1-1.8-.1h-1.7c-.1 2.2-.1 4.4-.1 6.6v5.5c0 1.4 0 2.8.1 4.1.1 1.4.1 2.7.2 4-.5 0-1-.1-1.6-.1-.6 0-1.1 0-1.6.1.1-1.3.1-2.7.2-4 .1-1.4.1-2.7.1-4.1v-5.5c0-2.3 0-4.5-.1-6.6zm13.3 2.4c-.1-1.3-.1-2.7-.2-4.1.3 0 .5.1.8.1h1.6c.3 0 .5-.1.8-.1-.1 1.4-.1 2.8-.2 4.1-.1 1.3-.1 2.7-.1 4.1v5.5c0 1.4 0 2.8.1 4.1.1 1.4.1 2.7.2 4-.5 0-1-.1-1.6-.1-.6 0-1.1 0-1.6.1.1-1.3.1-2.7.2-4 .1-1.4.1-2.7.1-4.1v-5.5c0-1.4-.1-2.7-.1-4.1zm8 2.1c.6-1.4 1.4-2.6 2.4-3.6s2.3-1.7 3.8-2.2c1.5-.5 3.1-.8 4.8-.8 1.8 0 3.4.3 4.8.8 1.5.5 2.7 1.3 3.8 2.2 1 1 1.9 2.2 2.4 3.6.6 1.4.9 3 .9 4.8 0 1.8-.3 3.4-.9 4.8-.6 1.4-1.4 2.6-2.4 3.6s-2.3 1.7-3.8 2.2c-1.5.5-3.1.7-4.8.7-1.7 0-3.3-.2-4.8-.7-1.5-.5-2.7-1.2-3.8-2.2-1-1-1.9-2.2-2.4-3.6-.6-1.4-.9-3-.9-4.8 0-1.8.3-3.4.9-4.8zm19.2.2c-.4-1.3-1.1-2.3-1.9-3.2-.8-.8-1.7-1.5-2.8-1.9-1.1-.4-2.2-.6-3.5-.6-1.2 0-2.4.2-3.5.6-1.1.4-2 1-2.8 1.9-.8.8-1.4 1.9-1.9 3.2-.4 1.3-.7 2.8-.7 4.6 0 1.8.2 3.3.7 4.6.4 1.3 1.1 2.3 1.9 3.2.8.8 1.7 1.5 2.8 1.9 1.1.4 2.2.6 3.5.6 1.3 0 2.4-.2 3.5-.6 1.1-.4 2-1 2.8-1.9.8-.8 1.4-1.9 1.9-3.2.4-1.3.7-2.8.7-4.6-.1-1.8-.3-3.3-.7-4.6zm18.3 7.2c-2.8-3-5.5-5.9-8.3-8.8 0 .6 0 1.4-.1 2.4v10.1c0 .7 0 1.4.1 2.1 0 .6 0 1.2.1 1.7 0 .5 0 .8.1 1-.3 0-.7-.1-1.1-.1-.4 0-.8 0-1.2.1 0-.2.1-.6.1-1.2.1-.6.1-1.3.1-2.1s.1-1.7.1-2.6c.1-.9.1-1.9.1-2.8 0-.9.1-1.8.1-2.7v-7.6c0-1.5 0-2.6-.1-3.3h.5c1.3 1.4 2.7 2.9 4.2 4.5s2.9 3.2 4.4 4.7c1.5 1.6 2.8 3 4.1 4.4 1.3 1.4 2.4 2.6 3.4 3.5v-10.8c0-2.1-.1-4.1-.2-6 .4.1.8.2 1.1.2.3 0 .6-.1 1-.2 0 .5-.1 1.2-.1 2.1-.1.9-.1 1.9-.2 3s-.1 2.1-.1 3.1-.1 1.8-.1 2.4v11.6h-.4c-2.2-2.9-4.8-5.7-7.6-8.7z" fill="#fff"/><path fill-rule="evenodd" clip-rule="evenodd" d="M118.2 128.4L57.3 78.2l2.4-7.9 2.7-5.6-3.1-.3-4.7 6.4-3.6-4.4-4.7-6.7-2.9 1.5 3.8 5.6-.4 2.1-9.4-7.4-2 2.2 7.7 6.9-.8 1.6L34 69l-.5 3.4 8 2.4.2 4-7-1.9-.6 2.6L47.3 84l5.3-1.5 57.5 51.3 8.1-5.4z" fill="#000"/><path d="M137.7 60.3c1.8-3.3 3.7-6.6 6.3-6.1 2.5.5 2.7 5.1 3.2 8.2 17.4 5.8 28.3 21.6 24.9 37-.2.7-.4 1.4-.6 2.2 1.9 1.1 2.9 3.3 2.4 5.5-.6 2.7-3.3 4.4-6.1 3.8-.4-.1-.8-.2-1.2-.4-7.9 9.6-22.4 14.4-37.4 11-13.3-3-23.6-11.7-27.8-22.1-.5.1-1.1 0-1.7-.1-2.7-.6-2.4-3.3-1.8-6.1.4-1.8-.2-3.2 1.4-3.7 0-2.1.2-4.2.6-6.3 3.4-15.3 19.8-24.8 37.8-22.9z" fill="#000"/><path fill-rule="evenodd" clip-rule="evenodd" d="M147.8 128.3l71.7-33.6-.6-8.3-1.3-6 3.1.4 3.1 7.2 4.5-3.4 6.1-5.4 2.5 2.1-5 4.6-.1 2.2 10.9-5.1 1.4 2.6-9.1 4.9.4 1.8 8.9-1.2-.3 3.4-8.4.5-1.1 3.8 7.2-.2.1 2.7-13.9 1.3-4.9-2.7-68.5 35.4-6.7-7zm-15.4-14.6l3.2.3c1.1.1 1.8 1.1 1.7 2.2l-.8 16.6c-.1 1.1-2 1.5-3.1 1.4l-3.2-.3c-1.1-.1-2.7-1.3-2.5-2.3l2.5-16.1c.2-1.2 1.1-2 2.2-1.8z" fill="#000"/><path d="M215.619 255.201l-4.455 5.398 1.157.955 4.455-5.399-1.157-.954z" fill="#000"/><path fill-rule="evenodd" clip-rule="evenodd" d="M97 182.8c31.3 9.3 32.7 9.1 65.1 5.2-6.3-21.9-10.4-34.8-7-64.2-20.5 11.4-25.9 9.4-44.2-3.2-.4 14.1-1.9 23.5-4.7 36-1.8 8.4-7.6 17.8-9.2 26.2zm28.6-112l28.7 2.5s-7.8 8.3-11.2 8.2c-3.3 0-17.5-10.7-17.5-10.7z" fill="#000"/><path fill-rule="evenodd" clip-rule="evenodd" d="M125.5 70.7c7.9 7.2 19.7 4 29.6 2.6 0 0-6.6 9.9-16.3 8.4-9.7-1.5-13.3-11-13.3-11z" fill="#000"/><path fill-rule="evenodd" clip-rule="evenodd" d="M145.5 80.9c-2 .7-4.3 1.1-6.8.7-1.4-.2-2.6-.6-3.8-1.1.9-.6.7-1 2.3-1.2 1.6-.2 3 .2 3 .2s1.5-.3 2.8-.1c1.5.2 2.8.6 2.5 1.5z" fill="#000"/><path fill-rule="evenodd" clip-rule="evenodd" d="M96.1 197.4l-23.4 31.9 6.5 4.2 35-32.3c.1-.1-17.4-4.3-18.1-3.8zm60 .4l7.5 38.8-7.6 1.5-16.5-44s16.1 3 16.6 3.7z" fill="#FDD4A4"/><path fill-rule="evenodd" clip-rule="evenodd" d="M41.7 204.5l39.2 21.6s1.4 7.6-2.8 6.6c-4.2-1.1-38.2-24.9-38.2-24.9l1.8-3.3zm160.9 37l-43.5-10.7s-6.2 4.7-2.4 6.7c3.8 2.1 44.9 7.5 44.9 7.5l1-3.5z" fill="#FDD4A4"/><path fill-rule="evenodd" clip-rule="evenodd" d="M105.2 81.1c-14.5 11.7-12 35.7-25.7 43.8 2.4 5.7 5.9 10.6 10.4 14.7l7.2-7.5-5.4 9c17.7 14.8 47.8 18 78 8.3-1.2-6.6-2.3-12-2.3-12l5.5 10.9c1.5-.5 3-1.1 4.4-1.7-1.7-2.6-3-4.5-3-4.5l4.5 3.9c11.7-4.8 23.1-11.6 33.7-20.5-22.9-12.9-42.5-19.7-44.7-39.9l-62.6-4.5z" fill="#000"/><path fill-rule="evenodd" clip-rule="evenodd" d="M119.2 128.9L56 77.9l2.4-7.5 2.5-5.3-3-.3-4.4 6.1-3.4-4.2-4.5-6.3-2.7 1.4 3.6 5.3-.4 2-8.9-7-1.9 2.1 7.3 6.5-.8 1.5-7.8-3-.5 3.2 7.6 2.2.2 3.8-6.6-1.7-.7 2.5 12.5 4.2 5.1-1.5 60 52 7.6-5zm18.5-64.7c1.7-3.1 3.5-6.3 5.9-5.8 2.4.5 2.5 4.9 3 7.7 16.5 5.5 26.9 20.5 23.6 35.1-.2.7-.3 1.4-.6 2 1.8 1 2.8 3.1 2.3 5.2-.6 2.6-3.1 4.2-5.7 3.6-.4-.1-.8-.2-1.2-.4-7.5 9.1-21.3 13.6-35.4 10.4-12.6-2.8-22.4-11.1-26.4-20.9-.5.1-1 0-1.6-.1-2.6-.6-4.2-3.1-3.6-5.7.4-1.7 1.7-3 3.2-3.5 0-2 .1-4 .6-6 3.3-14.3 18.8-23.4 35.9-21.6zm9.6 64.5l73.3-35-.6-7.8-1.2-5.7 3 .3 2.9 6.9 4.2-3.2 5.8-5.1 2.4 1.9-4.8 4.4v2.1l10.3-4.9 1.3 2.5-8.6 4.7.4 1.7 8.4-1.2-.3 3.3-7.9.4-1.1 3.6 6.9-.2v2.6l-13.1 1.2-4.7-2.6-70.3 36.8-6.3-6.7z" fill="#FDD4A4"/><path fill-rule="evenodd" clip-rule="evenodd" d="M132.7 114.8l3.1.3c1 .1 1.7 1 1.7 2l-.8 15.8c0 1-1.9 1.4-2.9 1.3l-3.1-.3c-1-.1-2.6-1.2-2.4-2.2l2.4-15.2c.1-1 1-1.8 2-1.7z" fill="#FDD4A4"/><path fill-rule="evenodd" clip-rule="evenodd" d="M106.7 171.5L95.9 197l23.2 6.8 5.9-13.5 10.4 3.3 1.2 11.6 22-2.1-6-28.3-45.9-3.3z" fill="#8C338A"/><path fill-rule="evenodd" clip-rule="evenodd" d="M201.6 240.4c1.4 1.3 19.1 11.1 20.1 17.3 1 6.2-1.8 7.9-6.7 6.2-4.8-1.7-16.8-19.8-16.8-19.8s3.3-4.1 3.4-3.7z" fill="#E72065"/><path d="M213.353 251.034l-4.266 5.166 1.079.892 4.266-5.167-1.079-.891zm-1.661-2.082l-4.265 5.166 1.079.892 4.266-5.167-1.08-.891z" fill="#000"/><path fill-rule="evenodd" clip-rule="evenodd" d="M44.1 205.1c-1.9-.1-21.3-6-26.4-2.3-5.1 3.6-4.4 6.8.2 9.1 4.6 2.3 25.9-1.7 25.9-1.7s.7-5.3.3-5.1z" fill="#E72065"/><path d="M26.952 204.008l-.737 6.659 1.391.154.737-6.659-1.391-.154zm2.634-.277l-.737 6.659 1.392.154.737-6.659-1.392-.154zm2.83.299l-.737 6.659 1.391.154.737-6.659-1.391-.154zm177.107 43.141l-4.266 5.166 1.08.892 4.266-5.167-1.08-.891z" fill="#000"/><path fill-rule="evenodd" clip-rule="evenodd" d="M99.1 180.4c29.7 8.8 31 8.6 61.8 5-6-20.7-9.8-33-6.7-60.9-19.4 10.8-24.5 8.9-41.9-3-.3 13.3-1.8 22.3-4.5 34.1-1.7 7.9-7.1 16.9-8.7 24.8z" fill="#E72065"/><path fill-rule="evenodd" clip-rule="evenodd" d="M126.2 74.2l27.2 2.4s-7.4 7.9-10.6 7.8c-3.1-.1-16.6-10.2-16.6-10.2z" fill="#fff"/><path fill-rule="evenodd" clip-rule="evenodd" d="M126.1 74.1c7.5 6.8 18.7 3.8 28 2.5 0 0-6.2 9.4-15.4 8-9.2-1.5-12.6-10.5-12.6-10.5z" fill="#E72065"/><path d="M223.5 232c-.6 1.6-7.7.2-15.7-3-8-3.3-14-7.2-13.3-8.8.6-1.6 7.7-.2 15.7 3 8 3.3 14 7.2 13.3 8.8z" fill="#30AEA9"/><path d="M222.8 233.7l.4-1v-.1c-.8 1.5-7.7.1-15.6-3.1-8-3.3-14-7.2-13.3-8.8 0 0 0-.1.1-.1l-.2.2-.5 1.2c0 .1-.1.2 0 .3-.1 1.7 5.7 5.4 13.4 8.5 8 3.3 15 4.6 15.7 3v-.1zm-12.1-7.8c-.2.4-.9.5-1.5.2-.7-.3-1.1-.8-.9-1.2l2.6-6.4c.2-.4.8-.5 1.5-.2s1.1.8.9 1.2l-2.6 6.4z" fill="#30AEA9"/><path d="M234.6 192.5l-.9-.3c1.5 4.4 1.5 9.1-.4 13.7-4.1 10.1-15.7 15-25.8 10.9-5.8-2.4-9.9-7.1-11.5-12.7l-.5.7c1.7 5.9 5.8 10.4 11.9 12.9 10.5 4.3 22.5-.7 26.8-11.2 1.9-4.8 2-9.4.4-14z" fill="#B5C81D"/><path d="M234.6 192.5l-.9-.3c1.5 4.4 1.5 9.1-.4 13.7-4.1 10.1-15.7 15-25.8 10.9-5.8-2.4-9.9-7.1-11.5-12.7l-.5.7c1.7 5.9 5.8 10.4 11.9 12.9 10.5 4.3 22.5-.7 26.8-11.2 1.9-4.8 2-9.4.4-14z" fill="#30AEA9"/><path d="M235.9 192.1l-1.4.4c3.4 10.8-2.6 22.3-13.4 25.7-10.8 3.4-22.3-2.6-25.7-13.4l-1.3.5c3.6 11.5 16 18 27.5 14.3 11.6-3.6 18-16 14.3-27.5z" fill="#C21720"/><path d="M235.9 192.1l-1.4.4c3.4 10.8-2.6 22.3-13.4 25.7-10.8 3.4-22.3-2.6-25.7-13.4l-1.3.5c3.6 11.5 16 18 27.5 14.3 11.6-3.6 18-16 14.3-27.5z" fill="#30AEA9"/><path d="M194.1 205.3l.7-.9 1.2-.3-.5.7-1.4.5zm41.8-13.2l-1-.3-1.2.4.9.3 1.3-.4zm-39.5 13.2c-.4.1-.8 0-.8-.2-.1-.2.2-.5.6-.7l37.6-11.8c.4-.1.8 0 .8.2.1.2-.2.5-.6.7l-37.6 11.8z" fill="#30AEA9"/><path d="M231.3 206.5c-3.5 8.7-13.5 12.9-22.2 9.4s-12.9-13.5-9.4-22.2 13.5-12.9 22.2-9.4c8.8 3.6 13 13.5 9.4 22.2z" fill="#30AEA9"/><path d="M211.8 204.2c.2-.4.9-2.6.2-2.9-.5-.4-1.5 1.2-1.8 1.6-.2.6-.3 1.1-.9 1.3-.7.4-1.4.9-2.2 1.3-.5-.9-.5-1.2-1.5-.9-.6.3-1 .4-1.1 1.2-.3 1.1 1.5 2.1 2.4 2.2.6.1 1.5-.7 1.9-.2.7.6.6 1.7 1.8 2.1.3 0 1.2-.2 1.6-.3 2.2-.4.2-3.7-.2-4.9" fill="#000"/><path d="M224.9 193.4c-.3-.2-.7-.2-1.1-.2.3.3.5.6.6.9.3.5.2.8.3 1.3.2.5 1.1 1 1.8 1.3 0-.1-.1-.2-.1-.3-.3-.9-.6-2.6-1.5-3z" fill="#30AEA9"/><path d="M216.2 187.5c-.3-.4-2-.7-2-1.2.1-.5 1.1-.5 1.3-1 .2-.2.2-.7.2-.9 0-.4.1-.6-.1-.8-5.4 0-10.7 2.7-13.7 7.4l.1.1c.5-.3 1.4-.2 1.9.1.5.4.2.7-.1 1.1-.3.4-.7 1-.8 1.5-.1.6 1.1.5 1.6.5-.1.8-.4 1.5-.7 2.2-.5.8-.8 1.2.1 1.9.5.4 1.2.8 1.6.5.6-.3.4-1 .7-1.4.8-.7 1.3.5 1.5-.5.4-1 .9-1.5.5-2.5-.6-1.3-.9-2.2-.9-3.5.1-1.5.7-.9 1.6-1.2.2-.1.3-.2.5-.3.3 0 .8.1 1.1.1.5-.5 0-1.7.8-2 .5-.3 1.7 0 2.3.1 1 .1 1.5.3 2.4.6.1 0 .2.1.3.1.1-.2 0-.5-.2-.9zm11.5 1.6c0 .3-.2.6-.5.7-.7.2-1.7-.8-2.3-1.1-1.2-.5-2.2-.9-3.4-1.4-.3.7.3 1.5.7 2 1.1 1.1 2.9 1.7 4.4 2.1.6.3 1.4.3 1.8.7.9.9 1 1.9 1.2 3 .1.4.4.6.1 1-.2.4-1 .7-1.6.8-.1.1-.4.2-.6.2.3.6.7 1.2.7 1.8.1.7-.9 1.1-1.4 1.4-1.2.8-2.8 1.7-4 .5-.8.8-1.4 1.9-1.4 3.1 0 .5.2 1.1 0 1.7-.2.6-.8.8-1.3 1.1-1.4 1.1-1.3 1.5 0 2.5 1.1.9 1.7 2.4 2.5 3.5.5.6.9 1 1.4 1.2 3-1.8 5.5-4.5 6.9-7.9 2.2-5.8.8-12.4-3.2-16.9z" fill="#000"/><path d="M219.4 190.9c-.2-.2-.4-.8-.8-1-.2-.2-.7 0-1 0-.1.6-.3 1.1-1.1 1.2-1.1.2-.6.3-.7 1.3-.1 1.5-2.3 3.4-.4 4.4.7.3 2 .6 2.4 0 .2-.4.2-.8.7-1.3.5-.3.5-.5.5-1.2 0-.5-.3-1 .3-1.3.1.1.4.2.7.1.2-.1.1-.3.3-.4-.1-.7-.3-1.3-.9-1.8z" fill="#30AEA9"/><path d="M28.1 148.3c.8-3.8 2.9-6.4 9.4-5.2 6.5 1.2 14 8 16.2 10.4 11.2 11.9 4.5 30.1-17 24-6.8-1.9-14.9-6.5-19.8-12.8-4.9-6.3-3-11-1.4-12.7 1.6-1.7 4.5-1.5 6.3-.3 2.7 1.7 5.3 1.7 6.3-3.4z" fill="#8C338A"/><path d="M39.1 151.7c-.8 1.5-3.2 1.8-5.4.6-2.2-1.2-3.3-3.3-2.5-4.8.8-1.5 3.2-1.8 5.4-.6 2.2 1.2 3.3 3.3 2.5 4.8z" fill="#000"/><path d="M31 147.4c1-1.8 3.6-2 5.8-.8 2.2 1.2 3.5 3.5 2.6 5.3-1 1.7-3.6 2-5.8.8-2.3-1.3-3.5-3.6-2.6-5.3zm2.5-.9c-.9.1-1.6.5-1.9 1.1-.3.6-.3 1.4.1 2.2.4.8 1.2 1.6 2.2 2.1 1 .6 2.1.8 3 .7.9-.1 1.6-.5 1.9-1.1.3-.6.3-1.4-.1-2.2-.4-.8-1.2-1.6-2.2-2.1-1.1-.5-2.2-.8-3-.7zm-11.6 13.2c-.8 1.5-2.6 2.1-4.1 1.3-1.4-.8-2-2.6-1.1-4.1.8-1.5 2.6-2.1 4.1-1.3 1.4.7 2 2.5 1.1 4.1z" fill="#000"/><path d="M16.4 156.7c.9-1.7 2.9-2.3 4.5-1.5 1.6.9 2.2 2.9 1.3 4.6-.9 1.7-2.9 2.4-4.5 1.5-1.6-.9-2.2-2.9-1.3-4.6zm.6.3c-.7 1.4-.3 3 1 3.7 1.3.7 2.9.2 3.6-1.2.7-1.4.3-3-1-3.7-1.2-.7-2.9-.1-3.6 1.2zm13 10c-.8 1.5-2.6 2.1-4.1 1.3-1.4-.8-1.9-2.6-1.1-4.1.8-1.5 2.6-2.1 4.1-1.3 1.4.7 1.9 2.6 1.1 4.1z" fill="#000"/><path d="M24.4 164c.9-1.7 2.9-2.4 4.5-1.5 1.6.9 2.2 2.9 1.3 4.6-.9 1.7-2.9 2.3-4.5 1.5-1.6-.8-2.2-2.9-1.3-4.6zm.6.4c-.7 1.4-.3 3 1 3.7 1.3.7 2.9.2 3.6-1.2.7-1.4.3-3-1-3.7-1.2-.7-2.9-.2-3.6 1.2zm13.8 8.3c-.8 1.5-2.6 2.1-4.1 1.3-1.4-.8-2-2.6-1.1-4.1.8-1.5 2.6-2.1 4.1-1.3 1.4.7 1.9 2.6 1.1 4.1z" fill="#000"/><path d="M33.2 169.7c.9-1.7 2.9-2.3 4.5-1.5 1.6.9 2.2 2.9 1.3 4.6-.9 1.7-2.9 2.4-4.5 1.5-1.6-.8-2.2-2.9-1.3-4.6zm.6.4c-.7 1.4-.3 3 1 3.7 1.3.7 2.9.1 3.6-1.2.7-1.4.3-3-1-3.7-1.2-.7-2.9-.2-3.6 1.2zm14.8 4.2c-.8 1.5-2.6 2.1-4.1 1.3-1.4-.8-2-2.6-1.1-4.1.8-1.5 2.6-2.1 4.1-1.3 1.5.7 2 2.6 1.1 4.1z" fill="#000"/><path d="M43.1 171.3c.9-1.7 2.9-2.4 4.5-1.5 1.6.9 2.2 2.9 1.3 4.6-.9 1.7-2.9 2.3-4.5 1.5-1.6-.8-2.2-2.9-1.3-4.6zm.6.3c-.7 1.4-.3 3 1 3.7 1.3.7 2.9.2 3.6-1.2.7-1.4.3-3-1-3.7-1.2-.7-2.9-.1-3.6 1.2zm12.5-4.8c-.8 1.5-2.6 2.1-4.1 1.3-1.4-.8-2-2.6-1.1-4.1.8-1.5 2.6-2.1 4.1-1.3 1.4.7 1.9 2.6 1.1 4.1z" fill="#000"/><path d="M50.7 163.8c.9-1.7 2.9-2.3 4.5-1.5 1.6.9 2.2 2.9 1.3 4.6-.9 1.7-2.9 2.3-4.5 1.5-1.6-.8-2.2-2.9-1.3-4.6zm.6.4c-.7 1.4-.3 3 1 3.7 1.3.7 2.9.2 3.6-1.2.7-1.4.3-3-1-3.7-1.3-.7-2.9-.2-3.6 1.2z" fill="#000"/><path d="M40.3 78.1l-25.4 7.1L.7 70.9l37.1 3 2.5 4.2zM23.2 66.8l25.7 7.8 20-14.3L26 62.8l-2.8 4z" fill="#30AEA9"/><path d="M40.3 77.9s-2.7-5-9.6-2.6c-6.8 2.5-16.5 8.8-16.5 8.8L.7 70.9l4.6-5.4s4.3-1.6 7-3.5 5-2.8 6.1-3.1c1.1-.3 4.6-1.4 7.8.8 0 0 1.5-3.7 4.9-5.3 3.4-1.5 9-1.8 10.7-3l1.7-1.2 25 10.2S56.8 64 53.9 65.2c-3 1.1-6.3 3.1-6.1 5.5.1 2.3.9 3.8.9 3.8s-2.3-.2-4.5.7c-2.2.9-3.9 2.7-3.9 2.7z" fill="#30AEA9"/><path d="M40.1 78s-.1-.2-.4-.6c-.3-.4-.8-.9-1.4-1.3-1.3-.9-3.2-1.6-6.1-.9-.4.1-.8.2-1.3.4-3.4 1.2-7.5 3.4-10.8 5.3-3.3 1.9-5.7 3.5-5.7 3.5l-.2.1L.3 70.9l4.8-5.6h.1s4.3-1.6 6.9-3.5c2.7-1.9 5.1-2.9 6.2-3.1.2 0 .4-.1.8-.2 1.5-.4 4.4-.9 7 .8.5-.9 2-3.8 4.9-5.1.9-.4 2-.7 3.1-1 1.8-.4 3.7-.7 5.2-1.1 1-.2 1.8-.5 2.3-.8l1.7-1.2.1-.1 25.8 10.5-.7.2s-11.7 3.6-14.6 4.8c-3 1.1-6.1 3.2-5.9 5.2 0 .8.2 1.4.3 2 .3 1.1.6 1.8.6 1.8l.2.5h-.5s-1.4-.1-3 .3c-.4.1-.9.2-1.3.4-1.1.5-2.1 1.1-2.8 1.7-.7.6-1.1 1-1.1 1l-.3.3V78zm.2-.1l.2-.1-.2.1zm.1-.5c.6-.5 2-1.8 3.8-2.6.5-.2 1-.4 1.4-.5 1.1-.3 2.2-.3 2.7-.3-.1-.3-.3-.8-.5-1.5-.1-.6-.3-1.3-.3-2.1-.1-2.6 3.3-4.6 6.3-5.7 2.6-1 11.3-3.7 13.9-4.5l-24.1-9.8c-.2.1-.6.4-1.6 1.1-.6.4-1.4.7-2.5.9-1.5.4-3.4.7-5.2 1.1-1.1.3-2.2.6-3 1-1.6.7-2.8 2-3.6 3.1-.8 1.1-1.2 2-1.2 2l-.1.3h-.3c-2.5-1.7-5.3-1.3-6.8-.9-.3.1-.6.1-.8.2-1 .2-3.3 1.2-6 3.1-2.5 1.8-6.4 3.3-7 3.5l-4.4 5.1 13.1 12.8c1.4-.9 10.1-6.4 16.4-8.7.5-.2.9-.3 1.3-.4 5.2-1.2 7.8 1.8 8.5 2.8z" fill="#000"/><path d="M1.7 69.7l.2-.2 14.2 13.3-.2.2L1.7 69.7zm1.2-1.3l.2-.2 14.3 13.6-.2.2L2.9 68.4zM4 66.9l.2-.2 14.9 14.2-.1.2L4 66.9zm1.2-1.2l.2-.2L20.8 80l-.2.2L5.2 65.7zm20.9-5.9l.2-.2L44.4 75l-.2.2-18.1-15.4z" fill="#000"/><path d="M211.1 78.5l28.1 33.6c.1.1.2.3.3.4 2.7 3.2 7.4 3.6 10.5 1 3.2-2.6 3.6-7.4.9-10.5l-.6-.6-27.8-33.3-11.4 9.4z" fill="#E72065"/><path d="M243.2 107.3l-1.8 1.5L214 76l1.8-1.5 27.4 32.8zm3.8-3.1l-1.8 1.4-27.4-32.8 1.8-1.5 27.4 32.9z" fill="#000"/><path d="M208 62.8l7.3 2.9 7.5 2.7-6 5-6 5-1.3-7.9-1.5-7.7z" fill="#E72065"/><path d="M1.2 305.4c.1 1.2.2 2.5.2 4s.1 2.7.1 3.7v7.9c.7-.1 1.7-.3 3.1-.6 1.7-.4 2.9-.6 3.6-.6.1 0 .2 0 .3.1.1.1.2.2.2.3 0 .1 0 .2-.1.3-.1.1-.2.2-.3.2-.8.1-2 .3-3.5.6-1.6.3-2.8.6-3.6.7H1c-.1 0-.2 0-.3-.1-.1-.1-.1-.2-.1-.3v-11.1c0-1.7-.1-3.3-.2-4.9 0-.1 0-.3.1-.4.1-.1.2-.1.3-.2.1 0 .2 0 .3.1 0 0 .1.1.1.3zm11.4 5.1c-.9 4.5-.8 8.2.2 11v.4c-.1.1-.1.2-.2.3h-.3c-.1-.1-.2-.1-.2-.3-1.1-2.9-1.2-6.8-.3-11.5 0-.1.1-.2.2-.3.1-.1.2-.1.3-.1.1 0 .2.1.3.2v.3zm.3-4.2c.1.1.1.2.1.3 0 .1 0 .2-.1.3-.1.1-.2.1-.3.1-.1 0-.2 0-.3-.1-.1-.1-.1-.2-.1-.3 0-.1 0-.2.1-.3.1-.1.2-.1.3-.1.1 0 .2 0 .3.1zm3 4.2c.4 2.2 1.3 5 2.6 8.2l.5 1.3.2.4c0-.1.1-.3.1-.4.1-.2.1-.4.2-.6.1-.2.1-.4.2-.5 0-.1.1-.2.1-.2.1-.4.4-1.1.7-2.1l.7-2.3.7-2c.3-.8.6-1.5.8-2.2 0-.1.1-.2.2-.2.1-.1.2-.1.3 0 .1.1.2.1.2.3.1.1 0 .2 0 .4-.3.6-.5 1.4-.8 2.1l-.7 2-.8 2.2c-.3 1-.5 1.7-.7 2.1 0 0 0 .1-.1.2l-.1.5c-.1.2-.1.4-.2.6-.1.4-.2.6-.3.9-.1.1-.1.3-.2.3 0 .1-.1.1-.1.2-.1.1-.2.1-.3.2-.1 0-.3 0-.4-.1-.1 0-.1-.1-.2-.1-.1-.1-.1-.2-.2-.3-.1-.2-.3-.5-.4-.8l-.6-1.3c-1.2-3.2-2.1-6-2.6-8.4 0-.1 0-.2.1-.4.1-.1.2-.2.3-.2.1 0 .2 0 .3.1.4-.1.5 0 .5.1zm11.6 0c-.9 4.5-.8 8.2.2 11v.4c-.1.1-.1.2-.2.3h-.3c-.1-.1-.2-.1-.2-.3-1.1-2.9-1.2-6.8-.3-11.5 0-.1.1-.2.2-.3.1-.1.2-.1.3-.1.1 0 .2.1.3.2v.3zm.2-4.2c.1.1.1.2.1.3 0 .1 0 .2-.1.3-.1.1-.2.1-.3.1-.1 0-.2 0-.3-.1-.1-.1-.1-.2-.1-.3 0-.1 0-.2.1-.3.1-.1.2-.1.3-.1.1 0 .2 0 .3.1zm3.5 9l.1-.3c.4-1.1.9-2.1 1.5-2.9.9-1.3 1.8-2 2.6-2.2.5-.1.9 0 1.2.3.3.3.5.6.7 1.2.3.8.4 2 .5 3.5v3.9l-.1 1v1.4c0 .1 0 .2-.1.3-.1.1-.2.1-.3.1-.1 0-.2 0-.3-.1-.1-.1-.1-.2-.1-.3v-1.6l.1-1c.1-1.5.1-2.8 0-3.8 0-1.4-.2-2.5-.4-3.2-.1-.4-.3-.6-.4-.8-.1-.1-.3-.2-.5-.1-.6.1-1.3.7-2.1 1.8-.5.8-1 1.6-1.4 2.6-.4 1.1-.7 2.4-.7 4v1.6c0 .2 0 .4-.1.5 0 0 0 .1-.1.1-.1.1-.2.2-.3.2-.2.1-.4 0-.5-.2 0 0-.1-.1-.1-.2v-10.6c0-.1 0-.2.1-.3.1-.1.2-.1.3-.1.1 0 .2 0 .3.1.1.1.1.2.1.3v4.8zm15.4-.8c-.5 1.6-1 3-1.7 4.3-.6 1.1-1.1 1.9-1.6 2.4-.8.7-1.5.8-2.2.3-.8-.6-1.1-1.6-1-3.2.1-1.3.6-2.8 1.3-4.3.7-1.5 1.5-2.7 2.4-3.4 1.1-1 2.2-1.1 3-.4h.1c.1 0 .1 0 .2.1.1 0 .1.1.1.1v1.6c0 1.3.1 2.9.1 4.5 0 2.8-.3 4.9-1 6.3-1 1.9-2.7 2.8-5.2 2.8-.1 0-.2 0-.3-.1-.1-.1-.1-.2-.1-.3 0-.1 0-.2.1-.3.1-.1.2-.1.3-.1 2.2 0 3.6-.8 4.4-2.3.6-1.2.9-3.1.9-5.8.2-.8.2-1.5.2-2.2zm-.2-3.6c-.5-.4-1.2-.3-2 .4s-1.5 1.7-2.2 3.2c-.7 1.4-1.1 2.7-1.2 3.9-.1 1.2.1 2 .6 2.3.3.2.7.1 1.2-.3s.9-1.1 1.4-2.1c.7-1.4 1.3-3 1.8-4.7l.2-.6c.1-.2.1-.3.1-.4 0 0 0-.1.1-.3 0-.1 0-.3.1-.4 0-.1 0-.3.1-.5-.2.1-.2-.2-.2-.5 0 0 0 .1 0 0zm17.9 3.4c-.4 1.9-.8 3.5-1.3 4.7-.5 1.1-.9 1.9-1.5 2.4-.8.7-1.6.7-2.4.1-.7-.5-1.1-1.5-1.2-3-.1-1.3.1-2.7.6-4.1.5-1.5 1.1-2.7 2-3.5 1-1 2.1-1.3 3.4-.9.2.1.3.2.3.4.1-.1.3-.1.4 0 .1 0 .1.1.1.1l.1.1v.1c.1.3.1.6.2 1 0 .4.1.7.1 1.2v.9c0 .7.1 1.7.2 3 0 .8.1 2.2.3 4.4 0 .1 0 .2-.1.3-.1.1-.2.2-.3.2-.1 0-.2 0-.3-.1-.1-.1-.2-.2-.2-.3-.2-2.2-.3-3.6-.3-4.4 0-1.1 0-1.9-.1-2.6zm-.7-3.4c-.9-.3-1.7-.1-2.5.7-.7.7-1.3 1.8-1.8 3.2-.4 1.3-.6 2.6-.5 3.8.1 1.2.3 1.9.8 2.2.5.3.9.3 1.4-.1.4-.4.8-1 1.2-2 .5-1.2.9-2.8 1.3-4.8.3-1.5.4-2.3.4-2.3v-.6c-.1 0-.2 0-.3-.1zm5.4 4.4l.1-.3c.4-1.1.9-2.1 1.5-2.9.9-1.3 1.8-2 2.6-2.2.5-.1.9 0 1.2.3.3.3.5.6.7 1.2.3.8.4 2 .5 3.5v3.9l-.1 1v1.4c0 .1 0 .2-.1.3-.1.1-.2.1-.3.1-.1 0-.2 0-.3-.1-.1-.1-.1-.2-.1-.3v-1.6l.1-1c.1-1.5.1-2.8 0-3.8 0-1.4-.2-2.5-.4-3.2-.1-.4-.3-.6-.4-.8-.1-.1-.3-.2-.5-.1-.6.1-1.3.7-2.1 1.8-.5.8-1 1.6-1.4 2.6-.4 1.1-.7 2.4-.7 4v1.6c0 .2 0 .4-.1.5 0 0 0 .1-.1.1-.1.1-.2.2-.3.2-.2.1-.4 0-.5-.2 0 0-.1-.1-.1-.2v-10.6c0-.1 0-.2.1-.3.1-.1.2-.1.3-.1.1 0 .2 0 .3.1.1.1.1.2.1.3v4.8zm16.1-9.5c.2 4.3.3 7.5.2 9.8 0 .4 0 1-.1 1.8 0 .8-.1 1.4-.1 1.8v1.4c0 .1 0 .1-.1.2.1.1.2.2.2.4 0 .1 0 .2-.1.3-.1.1-.2.1-.3.2-1.2.1-2.3-.1-3.3-.6-1.1-.5-1.9-1.3-2.6-2.3-.3-.5-.5-1.1-.7-1.8-.2-.7-.3-1.5-.3-2.2 0-1.9.5-3.2 1.6-3.9.7-.4 1.4-.4 2.2.1.5.4 1 1.1 1.5 2 .5.9.9 1.9 1.2 3v-.4c0-2.2 0-5.5-.2-9.7 0-.1 0-.2.1-.3.1-.1.2-.2.3-.2.1 0 .2 0 .3.1.2.1.2.2.2.3zm-.7 14.9l-.1-.1v-.1c-.1-.3-.1-.8-.2-1.5 0-.6-.1-1.1-.2-1.4-.1-.5-.3-1.1-.5-1.9-.3-.8-.6-1.5-1-2.2-.4-.8-.9-1.4-1.3-1.7-.4-.3-.8-.3-1.2-.1-.8.5-1.2 1.5-1.1 3 0 .7.1 1.3.3 2 .2.7.4 1.2.7 1.6.5.8 1.2 1.4 2 1.8.8.4 1.7.6 2.6.6zm12.7-15.3c.1 1.2.2 2.5.2 4s.1 2.7.1 3.7v7.9c.7-.1 1.7-.3 3.1-.6 1.7-.4 2.9-.6 3.6-.6.1 0 .2 0 .3.1.1.1.2.2.2.3 0 .1 0 .2-.1.3-.1.1-.2.2-.3.2-.8.1-2 .3-3.5.6-1.6.3-2.8.6-3.6.7h-.2c-.1 0-.2 0-.3-.1-.1-.1-.1-.2-.1-.3v-11.1c0-1.6-.1-3.3-.2-4.9 0-.1 0-.3.1-.4.1-.1.2-.1.3-.2.1 0 .2 0 .3.1 0 0 0 .1.1.3zm15.3 9.1c-.8.1-1.7.1-2.8 0h-1.5c0 .2-.1.4-.1.6-.2 1.6-.1 2.9.3 3.9s.8 1.6 1.4 1.8c.6.2 1.1 0 1.7-.6.7-.7 1.3-1.9 1.8-3.6 0-.1.1-.2.2-.3.1-.1.2-.1.3 0 .1 0 .2.1.3.2.1.1.1.2 0 .4-.5 1.8-1.1 3.2-2 4-.8.8-1.7 1.1-2.6.8-.9-.3-1.5-1.1-1.9-2.3-.4-1.2-.6-2.7-.4-4.4 0-.2 0-.3.1-.5h-.3c-.1 0-.2 0-.3-.1-.1-.1-.1-.2-.1-.3 0-.1 0-.2.1-.3.1-.1.2-.1.3-.1h.5c.3-.8.6-1.6 1.1-2.2.5-.6.9-1.1 1.4-1.3.8-.4 1.5-.2 2.1.4.5.7.8 1.8.9 3.4v.1c0 .1 0 .3-.1.4-.2-.1-.3 0-.4 0zm-4.1-.9h3.6c-.1-1.2-.3-2.1-.6-2.5-.3-.3-.6-.4-1-.2s-.7.5-1.1 1c-.3.4-.6 1-.9 1.7zm14.5.7c-.4 1.9-.8 3.5-1.3 4.7-.5 1.1-.9 1.9-1.5 2.4-.8.7-1.6.7-2.4.1-.7-.5-1.1-1.5-1.2-3-.1-1.3.1-2.7.6-4.1.5-1.5 1.1-2.7 2-3.5 1-1 2.1-1.3 3.4-.9.2.1.3.2.3.4.1-.1.3-.1.4 0 .1 0 .1.1.1.1l.1.1v.1c.1.3.1.6.2 1 0 .4.1.7.1 1.2v.9c0 .7.1 1.7.2 3 0 .8.1 2.2.3 4.4 0 .1 0 .2-.1.3-.1.1-.2.2-.3.2-.1 0-.2 0-.3-.1-.1-.1-.2-.2-.2-.3-.2-2.2-.3-3.6-.3-4.4-.1-1.1-.1-1.9-.1-2.6zm-.7-3.4c-.9-.3-1.7-.1-2.5.7-.7.7-1.3 1.8-1.8 3.2-.4 1.3-.6 2.6-.5 3.8.1 1.2.3 1.9.8 2.2.5.3.9.3 1.4-.1.4-.4.8-1 1.2-2 .5-1.2.9-2.8 1.3-4.8.3-1.5.4-2.3.4-2.3v-.6c-.1 0-.2 0-.3-.1zm5.5 4.1c.8-2.3 2.2-4 4.2-5.2.1-.1.2-.1.4 0 .1 0 .2.1.3.2.1.1.1.2 0 .4 0 .1-.1.2-.2.3-1.4.8-2.4 1.9-3.2 3.3-.7 1.4-1.2 3-1.2 4.8v2.6c0 .1 0 .1-.1.2s-.2.2-.4.2c-.1 0-.2-.1-.3-.2 0-.1-.1-.1-.1-.2v-.7c-.1-1.3-.1-1.9-.1-1.9v-3.4c0-.6 0-1.2-.1-1.7 0-.1 0-.2.1-.3.1-.1.2-.1.3-.2.1 0 .2 0 .3.1.1.1.1.2.2.3-.2.3-.2.8-.1 1.4zm7.6.3l.1-.3c.4-1.1.9-2.1 1.5-2.9.9-1.3 1.8-2 2.6-2.2.5-.1.9 0 1.2.3.3.3.5.6.7 1.2.3.8.4 2 .5 3.5v3.9l-.1 1v1.4c0 .1 0 .2-.1.3-.1.1-.2.1-.3.1-.1 0-.2 0-.3-.1-.1-.1-.1-.2-.1-.3v-1.6l.1-1c.1-1.5.1-2.8 0-3.8 0-1.4-.2-2.5-.4-3.2-.1-.4-.3-.6-.4-.8-.1-.1-.3-.2-.5-.1-.6.1-1.3.7-2.1 1.8-.5.8-1 1.6-1.4 2.6-.4 1.1-.7 2.4-.7 4v1.6c0 .2 0 .4-.1.5 0 0 0 .1-.1.1-.1.1-.2.2-.3.2-.2.1-.4 0-.5-.2 0 0-.1-.1-.1-.2v-10.6c0-.1 0-.2.1-.3.1-.1.2-.1.3-.1.1 0 .2 0 .3.1.1.1.1.2.1.3v4.8zm10.7-4.8c-.9 4.5-.8 8.2.2 11v.4c-.1.1-.1.2-.2.3h-.3c-.1-.1-.2-.1-.2-.3-1.1-2.9-1.2-6.8-.3-11.5 0-.1.1-.2.2-.3.1-.1.2-.1.3-.1.1 0 .2.1.3.2v.3zm.2-4.2c.1.1.1.2.1.3 0 .1 0 .2-.1.3-.1.1-.2.1-.3.1-.1 0-.2 0-.3-.1-.1-.1-.1-.2-.1-.3 0-.1 0-.2.1-.3.1-.1.2-.1.3-.1.1 0 .2 0 .3.1zm3.5 9l.1-.3c.4-1.1.9-2.1 1.5-2.9.9-1.3 1.8-2 2.6-2.2.5-.1.9 0 1.2.3.3.3.5.6.7 1.2.3.8.4 2 .5 3.5v3.9l-.1 1v1.4c0 .1 0 .2-.1.3-.1.1-.2.1-.3.1-.1 0-.2 0-.3-.1-.1-.1-.1-.2-.1-.3v-1.6l.1-1c.1-1.5.1-2.8 0-3.8 0-1.4-.2-2.5-.4-3.2-.1-.4-.3-.6-.4-.8-.1-.1-.3-.2-.5-.1-.6.1-1.3.7-2.1 1.8-.5.8-1 1.6-1.4 2.6-.4 1.1-.7 2.4-.7 4v1.6c0 .2 0 .4-.1.5 0 0 0 .1-.1.1-.1.1-.2.2-.3.2-.2.1-.4 0-.5-.2 0 0-.1-.1-.1-.2v-10.6c0-.1 0-.2.1-.3.1-.1.2-.1.3-.1.1 0 .2 0 .3.1.1.1.1.2.1.3v4.8zm15.4-.8c-.5 1.6-1 3-1.7 4.3-.6 1.1-1.1 1.9-1.6 2.4-.8.7-1.5.8-2.2.3-.8-.6-1.1-1.6-1-3.2.1-1.3.6-2.8 1.3-4.3.7-1.5 1.5-2.7 2.4-3.4 1.1-1 2.2-1.1 3-.4h.1c.1 0 .1 0 .2.1.1 0 .1.1.1.1v1.6c0 1.3.1 2.9.1 4.5 0 2.8-.3 4.9-1 6.3-1 1.9-2.7 2.8-5.2 2.8-.1 0-.2 0-.3-.1-.1-.1-.1-.2-.1-.3 0-.1 0-.2.1-.3.1-.1.2-.1.3-.1 2.2 0 3.6-.8 4.4-2.3.6-1.2.9-3.1.9-5.8.3-.8.2-1.5.2-2.2zm-.2-3.6c-.5-.4-1.2-.3-2 .4s-1.5 1.7-2.2 3.2c-.7 1.4-1.1 2.7-1.2 3.9-.1 1.2.1 2 .6 2.3.3.2.7.1 1.2-.3s.9-1.1 1.4-2.1c.7-1.4 1.3-3 1.8-4.7l.2-.6c.1-.2.1-.3.1-.4 0 0 0-.1.1-.3 0-.1 0-.3.1-.4 0-.1 0-.3.1-.5-.2.1-.2-.2-.2-.5 0 0 0 .1 0 0zm12 2.4c0-2.9-.1-5.5-.2-7.6 0-.1 0-.3.1-.4.1-.1.2-.1.3-.2.1 0 .2 0 .3.1.1.1.1.2.2.3.2 2.1.2 4.6.2 7.5 2.2-.4 3.9-.7 5.3-.9 0-2.6-.1-4.9-.2-6.9 0-.1 0-.3.1-.4.1-.1.2-.1.3-.2.1 0 .2 0 .3.1.1.1.1.2.2.3.1 2 .2 4.3.2 6.9h.4c.1 0 .2 0 .3.1.1.1.2.2.2.3 0 .1 0 .2-.1.3-.1.1-.2.2-.3.2h-.4v8.3c0 .1 0 .2-.1.3-.1.1-.2.1-.3.1-.1 0-.2 0-.3-.1-.1-.1-.1-.2-.1-.3v-8.3c-1.3.2-3.1.5-5.3.9v7.7c0 .1 0 .2-.1.3-.1.1-.2.1-.3.1-.1 0-.2 0-.3-.1-.1-.1-.1-.2-.1-.3v-7.7c-.1-.1-.2-.2-.2-.3-.3.1-.3 0-.1-.1zm16.6 1c-.4 1.9-.8 3.5-1.3 4.7-.5 1.1-.9 1.9-1.5 2.4-.8.7-1.6.7-2.4.1-.7-.5-1.1-1.5-1.2-3-.1-1.3.1-2.7.6-4.1.5-1.5 1.1-2.7 2-3.5 1-1 2.1-1.3 3.4-.9.2.1.3.2.3.4.1-.1.3-.1.4 0 .1 0 .1.1.1.1l.1.1v.1c.1.3.1.6.2 1 0 .4.1.7.1 1.2v.9c0 .7.1 1.7.2 3 0 .8.1 2.2.3 4.4 0 .1 0 .2-.1.3-.1.1-.2.2-.3.2-.1 0-.2 0-.3-.1-.1-.1-.2-.2-.2-.3-.2-2.2-.3-3.6-.3-4.4 0-1.1-.1-1.9-.1-2.6zm-.7-3.4c-.9-.3-1.7-.1-2.5.7-.7.7-1.3 1.8-1.8 3.2-.4 1.3-.6 2.6-.5 3.8.1 1.2.3 1.9.8 2.2.5.3.9.3 1.4-.1.4-.4.8-1 1.2-2 .5-1.2.9-2.8 1.3-4.8.3-1.5.4-2.3.4-2.3v-.6c-.1 0-.2 0-.3-.1zm5.5 10.1c0 1.8.1 3.2.1 4.3 0 .1 0 .2-.1.3-.1.1-.2.1-.3.1-.1 0-.2 0-.3-.1-.1-.1-.1-.2-.1-.3 0-1 0-2.6-.1-4.6-.1-2.1-.1-3.9-.1-5.6 0-1.6.1-3.2.2-4.7 0-.1.1-.2.2-.3.1-.1.2-.1.3-.1.1 0 .2.1.3.2.1.1.1.2.1.3-.1.7-.1 1.5-.2 2.3.4-.7.9-1.2 1.4-1.7.7-.6 1.3-1 1.9-1.1.8-.1 1.4.2 1.9 1 .4.7.7 1.5.6 2.6 0 1.2-.3 2.3-.8 3.3-.5 1.1-1.1 2-2 2.7-.9.8-1.9 1.3-3 1.4zm-.1-.9c1.4-.2 2.5-.9 3.5-2.2.9-1.3 1.4-2.7 1.4-4.2 0-.9-.1-1.6-.4-2.1-.3-.5-.7-.7-1.1-.6-.4.1-.9.3-1.4.8-.5.5-.9 1-1.3 1.6-.4.6-.6 1.1-.8 1.5.1 1.3.1 3 .1 5.2zm9.4.9c0 1.8.1 3.2.1 4.3 0 .1 0 .2-.1.3-.1.1-.2.1-.3.1-.1 0-.2 0-.3-.1-.1-.1-.1-.2-.1-.3 0-1 0-2.6-.1-4.6-.1-2.1-.1-3.9-.1-5.6 0-1.6.1-3.2.2-4.7 0-.1.1-.2.2-.3.1-.1.2-.1.3-.1.1 0 .2.1.3.2.1.1.1.2.1.3-.1.7-.1 1.5-.2 2.3.4-.7.9-1.2 1.4-1.7.7-.6 1.3-1 1.9-1.1.8-.1 1.4.2 1.9 1 .4.7.7 1.5.6 2.6 0 1.2-.3 2.3-.8 3.3-.5 1.1-1.1 2-2 2.7-.9.8-1.9 1.3-3 1.4zm-.1-.9c1.4-.2 2.5-.9 3.5-2.2.9-1.3 1.4-2.7 1.4-4.2 0-.9-.1-1.6-.4-2.1-.3-.5-.7-.7-1.1-.6-.4.1-.9.3-1.4.8-.5.5-.9 1-1.3 1.6-.4.6-.6 1.1-.8 1.5.1 1.3.1 3 .1 5.2zm9.8-9.6c-.9 4.5-.8 8.2.2 11v.4c-.1.1-.1.2-.2.3h-.3c-.1-.1-.2-.1-.2-.3-1.1-2.9-1.2-6.8-.3-11.5 0-.1.1-.2.2-.3.1-.1.2-.1.3-.1.1 0 .2.1.3.2 0 0 .1.2 0 .3zm.3-4.2c.1.1.1.2.1.3 0 .1 0 .2-.1.3-.1.1-.2.1-.3.1-.1 0-.2 0-.3-.1-.1-.1-.1-.2-.1-.3 0-.1 0-.2.1-.3.1-.1.2-.1.3-.1.1 0 .2 0 .3.1zm3.4 9l.1-.3c.4-1.1.9-2.1 1.5-2.9.9-1.3 1.8-2 2.6-2.2.5-.1.9 0 1.2.3.3.3.5.6.7 1.2.3.8.4 2 .5 3.5v3.9l-.1 1v1.4c0 .1 0 .2-.1.3-.1.1-.2.1-.3.1-.1 0-.2 0-.3-.1-.1-.1-.1-.2-.1-.3v-1.6l.1-1c.1-1.5.1-2.8 0-3.8 0-1.4-.2-2.5-.4-3.2-.1-.4-.3-.6-.4-.8-.1-.1-.3-.2-.5-.1-.6.1-1.3.7-2.1 1.8-.5.8-1 1.6-1.4 2.6-.4 1.1-.7 2.4-.7 4v1.6c0 .2 0 .4-.1.5 0 0 0 .1-.1.1-.1.1-.2.2-.3.2-.2.1-.4 0-.5-.2 0 0-.1-.1-.1-.2v-10.6c0-.1 0-.2.1-.3.1-.1.2-.1.3-.1.1 0 .2 0 .3.1.1.1.1.2.1.3v4.8zm14.7-.8c-.8.1-1.7.1-2.8 0h-1.5c0 .2-.1.4-.1.6-.2 1.6-.1 2.9.3 3.9s.8 1.6 1.4 1.8c.6.2 1.1 0 1.7-.6.7-.7 1.3-1.9 1.8-3.6 0-.1.1-.2.2-.3.1-.1.2-.1.3 0 .1 0 .2.1.3.2.1.1.1.2 0 .4-.5 1.8-1.1 3.2-2 4-.8.8-1.7 1.1-2.6.8-.9-.3-1.5-1.1-1.9-2.3-.4-1.2-.6-2.7-.4-4.4 0-.2 0-.3.1-.5h-.3c-.1 0-.2 0-.3-.1-.1-.1-.1-.2-.1-.3 0-.1 0-.2.1-.3.1-.1.2-.1.3-.1h.5c.3-.8.6-1.6 1.1-2.2.5-.6.9-1.1 1.4-1.3.8-.4 1.5-.2 2.1.4.5.7.8 1.8.9 3.4v.1c0 .1 0 .3-.1.4-.2-.1-.3 0-.4 0zm-4.1-.9h3.6c-.1-1.2-.3-2.1-.6-2.5-.3-.3-.6-.4-1-.2s-.7.5-1.1 1c-.4.4-.7 1-.9 1.7zm13.7-1.4c-.6-.7-1.1-1.2-1.5-1.4-.7-.3-1.1-.4-1.4-.1-.3.3-.3.7-.1 1.5.2.6.7 1.3 1.5 2.2l.3.3.3.3c0 .1.1.2.3.3l.3.3c.1.1.1.2.2.3.1.1.2.2.2.3l.2.3.2.4c.2.3.3.7.4 1.1.1.4.1.9.1 1.4 0 .5-.1.9-.3 1.3-.3.6-.9 1-1.7 1.1-.7.1-1.5 0-2.2-.4-.8-.4-1.5-1-1.9-1.8-.5-.8-.6-1.7-.4-2.8 0-.1.1-.2.2-.3.1-.1.2-.1.3-.1.1 0 .2.1.3.2.1.1.1.2.1.4-.2.9-.1 1.6.3 2.2.3.6.8 1.1 1.5 1.4.6.3 1.2.4 1.8.3.5-.1.9-.3 1.1-.6.2-.4.2-.9.2-1.4-.1-.6-.2-1.1-.4-1.5l-.1-.2c0-.1-.1-.2-.2-.3-.1-.1-.1-.2-.2-.2l-.5-.4-.2-.2c0-.1-.1-.1-.2-.3l-.2-.2-.2-.3-.2-.2c-.9-1-1.5-1.9-1.8-2.6-.4-1.1-.2-2 .4-2.5.6-.5 1.4-.5 2.4 0 .5.3 1.2.8 1.8 1.7.1.1.1.2.1.3 0 .1-.1.2-.2.3-.1.1-.2.1-.3.1-.1 0-.2-.1-.3-.2zm8.6 0c-.6-.7-1.1-1.2-1.5-1.4-.7-.3-1.1-.4-1.4-.1-.3.3-.3.7-.1 1.5.2.6.7 1.3 1.5 2.2l.3.3.3.3c0 .1.1.2.3.3l.3.3c.1.1.1.2.2.3.1.1.2.2.2.3l.2.3.2.4c.2.3.3.7.4 1.1.1.4.1.9.1 1.4 0 .5-.1.9-.3 1.3-.3.6-.9 1-1.7 1.1-.7.1-1.5 0-2.2-.4-.8-.4-1.5-1-1.9-1.8-.5-.8-.6-1.7-.4-2.8 0-.1.1-.2.2-.3.1-.1.2-.1.3-.1.1 0 .2.1.3.2.1.1.1.2.1.4-.2.9-.1 1.6.3 2.2.3.6.8 1.1 1.5 1.4.6.3 1.2.4 1.8.3.5-.1.9-.3 1.1-.6.2-.4.2-.9.2-1.4-.1-.6-.2-1.1-.4-1.5l-.1-.2c0-.1-.1-.2-.2-.3-.1-.1-.1-.2-.2-.2l-.2-.2-.2-.2c0-.1-.1-.1-.2-.3l-.2-.2-.2-.3-.2-.2c-.9-1-1.5-1.9-1.8-2.6-.4-1.1-.2-2 .4-2.5.6-.5 1.4-.5 2.4 0 .5.3 1.2.8 1.8 1.7.1.1.1.2.1.3 0 .1-.1.2-.2.3-.1.1-.2.1-.3.1-.4-.2-.5-.3-.6-.4z" fill="#fff"/></svg>